<svg width="16" height="16" viewBox="0 0 16 16" fill="none" xmlns="http://www.w3.org/2000/svg">
<path d="M5.026 15C11.064 15 14.367 9.99699 14.367 5.66599C14.367 5.52599 14.367 5.38399 14.361 5.24399C15.0041 4.77848 15.5591 4.20214 16 3.54199C15.3993 3.80684 14.7628 3.9814 14.111 4.05999C14.7975 3.64963 15.3117 3.00396 15.558 2.24299C14.913 2.62512 14.207 2.89336 13.471 3.03599C12.9762 2.50901 12.3214 2.15991 11.6081 2.04275C10.8948 1.92559 10.1627 2.04691 9.52534 2.38793C8.88796 2.72894 8.38081 3.27062 8.08245 3.92905C7.78409 4.58748 7.71118 5.32592 7.875 6.02999C6.56974 5.96454 5.29282 5.62546 4.12704 5.03473C2.96127 4.44401 1.93268 3.61484 1.108 2.60099C0.68934 3.32407 0.561574 4.17939 0.750646 4.99326C0.939718 5.80712 1.43145 6.51852 2.126 6.98299C1.60554 6.96531 1.09652 6.82555 0.64 6.57499V6.61999C0.640897 7.37747 0.903307 8.11141 1.38287 8.69775C1.86244 9.28409 2.52975 9.68686 3.272 9.83799C2.99026 9.91561 2.69923 9.9543 2.407 9.95299C2.20098 9.95362 1.99538 9.93453 1.793 9.89599C2.00279 10.548 2.41127 11.1182 2.96125 11.5265C3.51122 11.9348 4.17513 12.1608 4.86 12.173C3.69656 13.0868 2.2594 13.5824 0.78 13.58C0.519321 13.5811 0.258823 13.5661 0 13.535C1.50151 14.4923 3.2453 15.0005 5.026 15V15Z" fill="white"/>
</svg>
